<svg width="490" height="64" viewBox="0 0 490 64" fill="none" xmlns="http://www.w3.org/2000/svg">
<g clip-path="url(#clip0)">
<path d="M307.206 15.8166H308.93V27.9454H307.206V28.3976H312.729V27.9454H311.006V15.8166H312.729V15.3644H307.206V15.8166Z" fill="#005CA9"/>
<path d="M250.497 15.8166H252.211V27.9454H250.497V28.3976H256.01V27.9454H254.297V15.8166H256.01V15.3644H250.497V15.8166Z" fill="#005CA9"/>
<path d="M293.812 15.8166H295.526V27.9454H293.812V28.3976H299.325V27.9454H297.612V15.8166H299.325V15.3644H293.812V15.8166Z" fill="#005CA9"/>
<path d="M322.706 15.7161H324.691V24.5388H324.651L318.171 15.2639H313.969V15.7161H315.651V27.8449H313.969V28.2971H318.221V27.8449H316.206V16.1382H316.236L324.893 28.5081L325.236 28.4176V15.7161H326.919V15.2639H322.706V15.7161Z" fill="#005CA9"/>
<path d="M335.545 15.8166H337.198V21.464H331.504V15.8166H333.157V15.3644H327.715V15.8166H329.428V27.9454H327.715V28.3976H333.157V27.9454H331.504V21.9162H337.198V27.9454H335.545V28.3976H340.997V27.9454H339.274V15.8166H340.997V15.3644H335.545V15.8166Z" fill="#005CA9"/>
<path d="M123.264 15.8166H124.916V21.464H119.222V15.8166H120.875V15.3644H115.423V15.8166H117.146V27.9454H115.423V28.3976H120.875V27.9454H119.222V21.9162H124.916V27.9454H123.264V28.3976H128.716V27.9454H126.992V15.8166H128.716V15.3644H123.264V15.8166Z" fill="#005CA9"/>
<path d="M347.941 15.2639H347.579L343.255 28.0559H341.713V28.5081H345.795V28.0559H343.88L345.21 23.956H348.606L349.856 28.0559H347.951V28.5081H353.847V28.0559H352.164L347.941 15.2639ZM345.402 23.3933L346.974 18.7408L348.425 23.3933H345.402Z" fill="#005CA9"/>
<path d="M217.139 15.2639H216.777L212.463 28.0559H210.921V28.5081H215.003V28.0559H213.088L214.418 23.956H217.825L219.074 28.0559H217.17V28.5081H223.065V28.0559H221.382L217.139 15.2639ZM214.6 23.3933L216.172 18.7408L217.684 23.3833L214.6 23.3933Z" fill="#005CA9"/>
<path d="M275.128 15.2639H274.765L270.442 28.0559H268.88V28.5081H272.961V28.0559H271.036L272.367 23.956H275.773L277.023 28.0559H275.128V28.5081H281.024V28.0559H279.341L275.128 15.2639ZM272.588 23.3933L274.12 18.7307L275.561 23.3833L272.588 23.3933Z" fill="#005CA9"/>
<path d="M163.857 15.7161H165.843V24.5388H165.802L159.312 15.2639H155.12V15.7161H156.803V27.8449H155.12V28.2971H159.373V27.8449H157.357V16.1382H157.387L166.034 28.5081L166.387 28.4176V15.7161H168.07V15.2639H163.857V15.7161Z" fill="#005CA9"/>
<path d="M149.516 27.9454H146.745V22.0368H147.753C149.879 22.0368 149.99 22.6397 150.01 24.9207H150.564V18.7006H150.01C150.01 20.7104 149.889 21.464 147.753 21.464H146.745V15.8166H147.622C151.804 15.8166 152.479 16.1382 153.044 19.3638H153.527L153.416 15.3444H142.946V15.7966H144.669V27.9454H142.946V28.3976H153.951L154.122 23.946H153.628C153.185 26.5486 152.318 27.9454 149.516 27.9454Z" fill="#005CA9"/>
<path d="M107.663 17.8565C107.673 17.5479 107.748 17.2448 107.882 16.9664C108.016 16.688 108.206 16.4403 108.441 16.2391C108.676 16.0379 108.95 15.8876 109.247 15.7975C109.543 15.7075 109.855 15.6798 110.162 15.7161C111.875 15.7161 112.934 16.721 113.377 18.8011H113.881L113.77 15.9472C112.709 15.4625 111.561 15.1959 110.394 15.1635C108.237 15.1635 106.262 16.4597 106.262 18.7709C106.262 23.2627 113.317 22.0066 113.317 25.5236C113.317 27.2721 111.815 28.0559 110.293 28.0559C109.282 27.9929 108.332 27.5527 107.631 26.8228C106.931 26.0928 106.532 25.1268 106.514 24.1168H106.01L106.131 27.8047C107.362 28.3707 108.706 28.6524 110.061 28.6287C112.329 28.6287 114.637 27.1616 114.637 24.6695C114.637 19.7758 107.663 21.1022 107.663 17.8565Z" fill="#005CA9"/>
<path d="M204.955 15.8166H206.608V21.464H200.914V15.8166H202.567V15.3644H197.115V15.8166H198.838V27.9454H197.115V28.3976H202.567V27.9454H200.914V21.9162H206.608V27.9454H204.955V28.3976H210.407V27.9454H208.684V15.8166H210.407V15.3644H204.955V15.8166Z" fill="#005CA9"/>
<path d="M231.611 15.8166H233.274V21.464H227.58V15.8166H229.233V15.3644H223.781V15.8166H225.504V27.9454H223.781V28.3976H229.233V27.9454H227.58V21.9162H233.274V27.9454H231.611V28.3976H237.073V27.9454H235.35V15.8166H237.073V15.3644H231.611V15.8166Z" fill="#005CA9"/>
<path d="M189.667 17.8565C189.677 17.5469 189.752 17.2429 189.887 16.9637C190.021 16.6845 190.213 16.4364 190.449 16.235C190.685 16.0337 190.96 15.8836 191.258 15.7942C191.555 15.7049 191.868 15.6783 192.176 15.7161C193.89 15.7161 194.948 16.721 195.381 18.8011H195.865L195.754 15.9472C194.693 15.4625 193.545 15.1959 192.378 15.1635C190.221 15.1635 188.246 16.4597 188.246 18.7709C188.246 23.2627 195.301 22.0066 195.301 25.5236C195.301 27.2721 193.799 28.0559 192.277 28.0559C191.27 27.9881 190.324 27.5457 189.628 26.8163C188.932 26.0869 188.536 25.1235 188.518 24.1168H188.014L188.145 27.8047C189.376 28.371 190.72 28.6527 192.076 28.6287C194.353 28.6287 196.651 27.1616 196.651 24.6695C196.641 19.7758 189.667 21.1022 189.667 17.8565Z" fill="#005CA9"/>
<path d="M80.553 19.5447H81.1073C81.1778 17.8465 81.8732 15.9372 83.7578 15.9372H85.3299V27.9956H83.3143V28.4478H89.4216V27.9956H87.406V15.9372H88.9882C90.8527 15.9372 91.5682 17.8465 91.6488 19.5447H92.193V15.3644H80.553V19.5447Z" fill="#005CA9"/>
<path d="M168.896 19.5447H169.451C169.521 17.8465 170.217 15.9372 172.111 15.9372H173.683V27.9956H171.668V28.4478H177.775V27.9956H175.76V15.9372H177.372C179.236 15.9372 179.952 17.8465 180.022 19.5447H180.567V15.3644H168.896V19.5447Z" fill="#005CA9"/>
<path d="M367.613 15.7664H369.629V24.2877C369.629 26.4783 369.286 27.8952 365.829 27.8952C362.877 27.8952 362.363 26.7798 362.363 24.4284V15.7664H364.167V15.3142H358.604V15.7664H360.287V24.6695C360.287 27.1214 360.871 28.4679 365.265 28.4679C369.659 28.4679 370.173 26.9908 370.173 24.4485V15.7664H371.715V15.3142H367.684L367.613 15.7664Z" fill="#005CA9"/>
<path d="M381.4 15.7161H383.375V24.5388H383.345L376.855 15.2639H372.662V15.7161H374.345V27.8449H372.662V28.2971H376.905V27.8449H374.89V16.1382H374.93L383.577 28.5081L383.93 28.4176V15.7161H385.613V15.2639H381.4V15.7161Z" fill="#005CA9"/>
<path d="M386.489 15.8166H388.213V27.9454H386.489V28.3976H392.012V27.9454H390.289V15.8166H392.012V15.3644H386.489V15.8166Z" fill="#005CA9"/>
<path d="M401.082 15.7161H402.967L399.732 25.3025H399.691L396.638 15.7161H398.522V15.2639H392.969V15.7161H394.461L398.744 28.5081H399.147L403.612 15.7161H404.962V15.2639H401.082V15.7161Z" fill="#005CA9"/>
<path d="M412.49 27.9454H409.719V22.0368H410.727C412.853 22.0368 412.964 22.6397 412.984 24.9207H413.528V18.7006H412.984C412.984 20.7104 412.853 21.464 410.727 21.464H409.719V15.8166H410.606C414.788 15.8166 415.463 16.1382 416.028 19.3638H416.501L416.391 15.3444H405.909V15.7966H407.633V27.9454H405.909V28.3976H416.915L417.076 23.946H416.582C416.219 26.5486 415.292 27.9454 412.49 27.9454Z" fill="#005CA9"/>
<path d="M466.387 27.9454H463.586V22.0368H464.593C466.72 22.0368 466.831 22.6397 466.851 24.9207H467.395V18.7006H466.851C466.851 20.7104 466.72 21.464 464.593 21.464H463.586V15.8166H464.472C468.655 15.8166 469.33 16.1382 469.894 19.3638H470.368L470.257 15.3444H459.816V15.7966H461.57V27.9454H459.847V28.3976H470.852L471.013 23.946H470.519C470.106 26.5486 469.189 27.9454 466.387 27.9454Z" fill="#005CA9"/>
<path d="M427.97 25.0614C427.829 22.1774 426.962 21.8157 424.261 21.4841C426.025 21.263 427.376 20.64 427.376 18.5298C427.376 15.887 425.733 15.3946 423.415 15.3946H418.063V15.8468H419.787V27.9454H418.063V28.3976H423.506V27.9454H421.853V21.8157H423.002C425.34 21.8157 425.743 22.5995 425.884 24.971C426.055 27.5434 426.217 28.3976 428.444 28.3976H429.774V27.9454H429.321C428.202 27.9454 428.061 27.0008 427.97 25.0614ZM421.853 21.253V15.8166H422.81C424.675 15.8166 425.299 16.8215 425.299 18.5097C425.299 20.0069 424.765 21.2429 423.143 21.2429L421.853 21.253Z" fill="#005CA9"/>
<path d="M247.666 25.0614C247.514 22.1774 246.658 21.8157 243.957 21.4841C245.72 21.263 247.071 20.64 247.071 18.5298C247.071 15.887 245.428 15.3946 243.11 15.3946H237.759V15.8468H239.482V27.9454H237.759V28.3976H243.201V27.9454H241.548V21.8157H242.697C245.035 21.8157 245.438 22.5995 245.579 24.971C245.751 27.5434 245.912 28.3976 248.139 28.3976H249.48V27.9454H249.026C247.918 27.9454 247.756 27.0008 247.666 25.0614ZM241.548 21.253V15.8166H242.506C244.37 15.8166 244.995 16.8215 244.995 18.5097C244.995 20.0069 244.461 21.2429 242.838 21.2429L241.548 21.253Z" fill="#005CA9"/>
<path d="M432.344 17.8565C432.354 17.5479 432.429 17.2447 432.563 16.9663C432.697 16.6879 432.887 16.4403 433.122 16.2391C433.357 16.0379 433.632 15.8875 433.928 15.7975C434.224 15.7075 434.536 15.6798 434.843 15.7161C436.557 15.7161 437.615 16.721 438.058 18.801H438.542L438.391 15.9372C437.326 15.4516 436.175 15.1851 435.005 15.1534C432.848 15.1534 430.873 16.4497 430.873 18.7609C430.873 23.2526 437.927 21.9965 437.927 25.5136C437.927 27.262 436.426 28.0458 434.904 28.0458C433.909 27.9639 432.98 27.5167 432.296 26.7908C431.613 26.065 431.224 25.1121 431.205 24.1168H430.701L430.822 27.8047C432.053 28.3714 433.397 28.6531 434.753 28.6286C437.02 28.6286 439.328 27.1615 439.328 24.6695C439.328 19.7758 432.344 21.1022 432.344 17.8565Z" fill="#005CA9"/>
<path d="M440.517 15.8166H442.24V27.9454H440.517V28.3976H446.04V27.9454H444.317V15.8166H446.04V15.3644H440.517V15.8166Z" fill="#005CA9"/>
<path d="M484.487 15.8166H486.211V27.9454H484.487V28.3976H490V27.9454H488.287V15.8166H490V15.3644H484.487V15.8166Z" fill="#005CA9"/>
<path d="M471.648 19.5447H472.192C472.273 17.8465 472.958 15.9372 474.853 15.9372H476.425V27.9956H474.409V28.4478H480.517V27.9956H478.501V15.9372H480.083C481.948 15.9372 482.663 17.8465 482.734 19.5447H483.278V15.3644H471.648V19.5447Z" fill="#005CA9"/>
<path d="M447.148 19.5447H447.703C447.773 17.8465 448.469 15.9372 450.353 15.9372H451.926V27.9956H449.91V28.4478H456.017V27.9956H454.002V15.9372H455.584C457.448 15.9372 458.164 17.8465 458.234 19.5447H458.779V15.3644H447.148V19.5447Z" fill="#005CA9"/>
<path d="M131.558 27.9152V15.8568H129.834V15.3644H135.468V15.8568H133.765V27.9152H135.468V28.4076H129.834V27.9152H131.558ZM137.433 15.3544H140.87V15.8468H139.62L135.589 20.3586L141.091 27.9152H142.099V28.4076H137.252V27.9152H138.4L133.875 21.5142L138.914 15.8468H137.403L137.433 15.3544Z" fill="#005CA9"/>
<path d="M99.1569 15.3242C95.9621 15.3242 93.3721 17.766 93.3721 21.886C93.3721 26.0059 95.9621 28.4578 99.1569 28.4578C102.352 28.4578 104.942 26.0059 104.942 21.886C104.942 17.766 102.352 15.3242 99.1569 15.3242ZM102.231 25.5839C102.184 25.9688 102.048 26.3374 101.832 26.6602C101.617 26.983 101.329 27.2511 100.991 27.4429C100.409 27.7457 99.7632 27.9075 99.1065 27.9152C98.6977 27.9485 98.2865 27.8959 97.8994 27.7609C97.5123 27.6259 97.1579 27.4115 96.8591 27.1314C96.3564 26.5717 96.0427 25.8687 95.9621 25.1217C95.8149 24.0831 95.7408 23.0354 95.7404 21.9865C95.6933 20.6392 95.7981 19.291 96.0528 17.967C96.1225 17.6292 96.2625 17.3097 96.4639 17.0292C96.6653 16.7488 96.9235 16.5137 97.2219 16.3391C97.8171 16.0238 98.483 15.8647 99.1569 15.8769C99.793 15.8645 100.422 16.0168 100.981 16.319C101.528 16.6367 101.937 17.1451 102.13 17.7459C102.429 18.9205 102.552 20.1329 102.493 21.3434C102.536 22.7586 102.449 24.1748 102.231 25.5739V25.5839Z" fill="#005CA9"/>
<path d="M258.399 27.8751V15.897H256.726V15.4046H262.319C263.455 15.3748 264.585 15.5695 265.645 15.9774C266.652 16.4393 267.467 17.2347 267.952 18.2283C268.57 19.3414 268.889 20.5941 268.88 21.8659C268.902 23.172 268.552 24.4577 267.872 25.5739C267.335 26.5331 266.515 27.3048 265.524 27.7846C264.499 28.1936 263.402 28.3885 262.299 28.3574H256.746V27.865L258.399 27.8751ZM260.596 15.897V27.8751H262.198C262.878 27.8892 263.556 27.8081 264.214 27.6339C264.76 27.4672 265.228 27.1107 265.534 26.629C265.912 25.9997 266.153 25.2977 266.239 24.569C266.376 23.4894 266.437 22.4014 266.421 21.3133C266.489 20.0828 266.29 18.8521 265.836 17.7058C265.708 17.3784 265.515 17.0799 265.269 16.8279C265.024 16.5759 264.73 16.3756 264.405 16.2387C263.686 16.028 262.937 15.933 262.188 15.9573L260.596 15.897Z" fill="#005CA9"/>
<path d="M290.9 19.3135H290.326C290.232 18.8296 290.094 18.3553 289.913 17.8967C289.697 17.2169 289.266 16.6253 288.685 16.2104C288.103 15.7955 287.402 15.5797 286.688 15.5955C286.298 15.5621 285.905 15.6072 285.533 15.728C285.16 15.8488 284.816 16.043 284.521 16.2989C284.057 16.7824 283.763 17.4031 283.684 18.0675C283.568 19.068 283.518 20.075 283.533 21.0821C283.487 22.6597 283.561 24.2386 283.755 25.805C283.85 26.4778 284.178 27.0962 284.682 27.5535C285.164 27.9469 285.772 28.1538 286.395 28.1363C286.901 28.1419 287.4 28.021 287.847 27.7846C288.043 27.6834 288.216 27.5414 288.354 27.3681C288.491 27.1948 288.59 26.9942 288.643 26.7797C288.769 26.1006 288.823 25.4101 288.804 24.7197V24.0264H287V23.534H292.825V24.0264H291.324C291.39 24.6991 291.286 25.3777 291.02 25.9995C290.754 26.6213 290.335 27.1661 289.802 27.5836C288.881 28.2694 287.766 28.6459 286.617 28.6588C285.834 28.6652 285.06 28.4864 284.359 28.137C283.658 27.7877 283.051 27.2778 282.586 26.6491C281.512 25.3028 280.942 23.6258 280.973 21.9061C280.919 20.155 281.498 18.4429 282.606 17.0827C283.01 16.5315 283.524 16.07 284.117 15.7276C284.709 15.3852 285.366 15.1694 286.047 15.0938C286.727 15.0182 287.416 15.0845 288.069 15.2885C288.723 15.4925 289.326 15.8298 289.842 16.2789C290.134 16.51 290.366 15.9372 290.366 15.9372H290.88L290.9 19.3135Z" fill="#005CA9"/>
<path d="M80.7041 36.0747H82.4274V48.2236H80.7041V48.6858H86.2369V48.2236H84.5136V36.0747H86.2369V35.6124H80.7041V36.0747Z" fill="#005CA9"/>
<path d="M96.7685 36.0747H98.7539V44.9175H98.7135L92.2133 35.6124H88.0107V36.0747H89.6938V48.2236H88.0107V48.6858H92.2737V48.2236H90.2481V36.4967H90.2884L98.9554 48.8968L99.2981 48.8064V36.0747H100.991V35.6124H96.7685V36.0747Z" fill="#005CA9"/>
<path d="M255.345 36.0747H257.068V48.2236H255.345V48.6858H260.878V48.2236H259.155V36.0747H260.878V35.6124H255.345V36.0747Z" fill="#005CA9"/>
<path d="M271.399 36.0747H273.385V44.9175H273.354L266.854 35.6124H262.652V36.0747H264.335V48.2236H262.652V48.6858H266.904V48.2236H264.879V36.4967H264.919L273.586 48.8968L273.939 48.8064V36.0747H275.632V35.6124H271.399V36.0747Z" fill="#005CA9"/>
<path d="M110.464 36.0747H112.127V41.7321H106.423V36.0747H108.076V35.6124H102.614V36.0747H104.337V48.2236H102.614V48.6858H108.076V48.2236H106.423V42.1843H112.127V48.2236H110.464V48.6858H115.937V48.2236H114.203V36.0747H115.937V35.6124H110.464V36.0747Z" fill="#005CA9"/>
<path d="M321.93 36.0747H323.583V41.7321H317.879V36.0747H319.531V35.6124H314.069V36.0747H315.792V48.2236H314.069V48.6858H319.531V48.2236H317.879V42.1843H323.583V48.2236H321.93V48.6858H327.392V48.2236H325.669V36.0747H327.392V35.6124H321.93V36.0747Z" fill="#005CA9"/>
<path d="M122.891 35.4014H122.528L118.204 48.2336H116.662V48.6858H120.754V48.2336H118.819L120.159 44.1237H123.576L124.825 48.2336H122.951V48.6858H128.857V48.2336H127.164L122.891 35.4014ZM120.341 43.5509L121.943 38.8783L123.394 43.5408L120.341 43.5509Z" fill="#005CA9"/>
<path d="M297.995 35.4014H297.632L293.268 48.2336H291.756V48.6858H295.848V48.2336H293.923L295.284 44.1136H298.7L299.919 48.2336H298.015V48.6858H303.92V48.2336H302.227L297.995 35.4014ZM295.445 43.5509L297.017 38.8883L298.468 43.5509H295.445Z" fill="#005CA9"/>
<path d="M143.107 36.0647H145.122V44.6061C145.122 46.7967 144.77 48.2236 141.313 48.2236C138.35 48.2236 137.836 47.1082 137.836 44.7468V36.0647H139.65V35.6125H134.037V36.0647H135.73V44.9879C135.73 47.4398 136.314 48.7964 140.769 48.7964C145.223 48.7964 145.687 47.3092 145.687 44.7769V36.0346H147.138V35.5824H143.107V36.0647Z" fill="#005CA9"/>
<path d="M157.67 36.0747H159.655V44.9175H159.615L153.114 35.6124H148.912V36.0747H150.595V48.2236H148.912V48.6858H153.165V48.2236H151.149V36.4967H151.179L159.856 48.8968L160.199 48.8064V36.0747H161.892V35.6124H157.67V36.0747Z" fill="#005CA9"/>
<path d="M363.28 36.0747H365.265V44.9175H365.225L358.725 35.6124H354.522V36.0747H356.205V48.2236H354.522V48.6858H358.775V48.2236H356.76V36.4967H356.8L365.467 48.8968L365.82 48.8064V36.0747H367.503V35.6124H363.28V36.0747Z" fill="#005CA9"/>
<path d="M163.656 36.0747H165.379V48.2236H163.656V48.6858H169.189V48.2236H167.465V36.0747H169.189V35.6124H163.656V36.0747Z" fill="#005CA9"/>
<path d="M177.977 36.0747H179.861L176.616 45.6812H176.586L173.522 36.0747H175.407V35.6124H169.833V36.0747H171.335L175.628 48.8968H176.031L180.506 36.0747H181.857V35.6124H177.977V36.0747Z" fill="#005CA9"/>
<path d="M189.093 48.2336H186.311V42.3049H187.319C189.456 42.3049 189.566 42.9179 189.587 45.1989H190.131V38.9687H189.587C189.587 40.9785 189.456 41.7422 187.319 41.7422H186.311V36.0647H187.198C191.391 36.0647 192.066 36.3963 192.64 39.6219H193.114L193.003 35.6024H182.502V36.0546H184.225V48.2336H182.502V48.6858H193.497L193.698 44.2141H193.205C192.822 46.8168 191.905 48.2336 189.093 48.2336Z" fill="#005CA9"/>
<path d="M348.526 48.2336H345.744V42.3049H346.752C348.889 42.3049 348.999 42.9179 349.02 45.1989H349.574V38.9687H349.02C349.02 40.9785 348.889 41.7422 346.752 41.7422H345.744V36.0647H346.631C350.824 36.0647 351.499 36.3963 352.063 39.6219H352.547L352.436 35.6024H341.935V36.0546H343.658V48.2336H341.935V48.6858H352.96L353.131 44.2141H352.638C352.245 46.8168 351.327 48.2336 348.526 48.2336Z" fill="#005CA9"/>
<path d="M205.439 45.3396C205.288 42.4556 204.431 42.0838 201.72 41.7522C203.484 41.5312 204.834 40.9081 204.834 38.7879C204.834 36.135 203.192 35.6426 200.864 35.6426H195.512V36.0948H197.236V48.2336H195.512V48.6858H200.974V48.2336H199.322V42.0838H200.481C202.819 42.0838 203.232 42.8676 203.373 45.2492C203.544 47.8317 203.706 48.6858 205.933 48.6858H207.273V48.2336H206.82C205.681 48.2336 205.54 47.2287 205.439 45.3396ZM199.302 41.5211V36.0647H200.259C202.133 36.0647 202.758 37.0695 202.758 38.7678C202.758 40.265 202.224 41.5111 200.592 41.5111L199.302 41.5211Z" fill="#005CA9"/>
<path d="M209.732 38.1146C209.742 37.8051 209.817 37.501 209.952 37.2218C210.086 36.9427 210.278 36.6945 210.514 36.4932C210.75 36.2918 211.025 36.1417 211.323 36.0524C211.62 35.963 211.933 35.9364 212.242 35.9743C213.955 35.9743 215.013 36.9791 215.456 39.0693H215.94L215.829 36.1753C214.766 35.6862 213.614 35.4162 212.443 35.3814C210.276 35.3814 208.301 36.6777 208.301 38.9989C208.301 43.5108 215.416 42.2446 215.416 45.7717C215.416 47.5202 213.914 48.304 212.393 48.304C211.383 48.2412 210.434 47.8023 209.734 47.0745C209.034 46.3467 208.634 45.3832 208.614 44.3749H208.11L208.241 48.0729C209.475 48.6407 210.822 48.9224 212.181 48.8968C214.459 48.8968 216.767 47.4297 216.767 44.8774C216.726 40.0339 209.732 41.3905 209.732 38.1146Z" fill="#005CA9"/>
<path d="M306.077 38.1147C306.088 37.8051 306.162 37.501 306.297 37.2219C306.432 36.9427 306.623 36.6945 306.859 36.4932C307.095 36.2918 307.371 36.1417 307.668 36.0524C307.966 35.963 308.278 35.9364 308.587 35.9743C310.3 35.9743 311.358 36.9792 311.801 39.0693H312.285L312.184 36.1753C311.121 35.6855 309.969 35.4154 308.798 35.3814C306.632 35.3814 304.656 36.6777 304.656 38.9989C304.656 43.5108 311.771 42.2447 311.771 45.7718C311.771 47.5203 310.27 48.3041 308.748 48.3041C307.732 48.2458 306.775 47.8063 306.07 47.0737C305.366 46.3412 304.965 45.3699 304.949 44.3549H304.445L304.566 48.0528C305.8 48.6204 307.147 48.9021 308.506 48.8768C310.784 48.8768 313.091 47.4097 313.091 44.8573C313.081 40.034 306.077 41.3905 306.077 38.1147Z" fill="#005CA9"/>
<path d="M218.127 36.0747H219.85V48.2236H218.127V48.6858H223.66V48.2236H221.936V36.0747H223.66V35.6124H218.127V36.0747Z" fill="#005CA9"/>
<path d="M225.051 39.8028H225.595C225.675 38.1046 226.371 36.1853 228.255 36.1853H229.838V48.2336H227.822V48.6858H233.949V48.2336H231.934V36.1752H233.516C235.391 36.1752 236.106 38.0945 236.177 39.7927H236.731V35.6226H225.051V39.8028Z" fill="#005CA9"/>
<path d="M281.467 39.8028H282.021C282.092 38.1046 282.787 36.1853 284.682 36.1853H286.214V48.2336H284.198V48.6858H290.325V48.2336H288.31V36.1752H289.892C291.766 36.1752 292.482 38.0945 292.553 39.7927H293.097V35.6226H281.467V39.8028Z" fill="#005CA9"/>
<path d="M369.185 39.8028H369.74C369.81 38.1046 370.516 36.1853 372.4 36.1853H373.972V48.2336H371.957V48.6858H378.074V48.2336H376.059V36.1752H377.641C379.515 36.1752 380.231 38.0945 380.302 39.7927H380.846V35.6226H369.185V39.8028Z" fill="#005CA9"/>
<path d="M244.783 35.6124V36.0747H246.658L243.917 41.4206L241.024 36.0747H242.929V35.6124H237.094V36.0747H238.636L242.062 42.114V48.2236H240.319V48.6858H245.831V48.2236H244.138V42.0738L247.232 36.0747H248.663V35.6124H244.783Z" fill="#005CA9"/>
<path d="M330.718 48.2336V36.1752H328.995V35.6828H334.648V36.1752H332.935V48.2336H334.648V48.726H328.995V48.2336H330.718ZM336.603 35.6024H340.05V36.0948H338.8L334.769 40.6167L340.322 48.2336H341.269V48.726H336.412V48.2336H337.611L333.076 41.8125L338.165 36.1249H336.603V35.6024Z" fill="#005CA9"/>
<path d="M6.75246 26.5794C7.20349 26.5794 7.56913 26.2148 7.56913 25.7651C7.56913 25.3154 7.20349 24.9508 6.75246 24.9508C6.30143 24.9508 5.93579 25.3154 5.93579 25.7651C5.93579 26.2148 6.30143 26.5794 6.75246 26.5794Z" fill="#1D1D1B"/>
<path d="M57.4346 26.5794C57.8856 26.5794 58.2513 26.2148 58.2513 25.7651C58.2513 25.3154 57.8856 24.9508 57.4346 24.9508C56.9836 24.9508 56.6179 25.3154 56.6179 25.7651C56.6179 26.2148 56.9836 26.5794 57.4346 26.5794Z" fill="#1D1D1B"/>
<path d="M32.0972 1.57823e-06C25.7483 -0.001986 19.5414 1.87339 14.2616 5.38894C8.9817 8.90448 4.86601 13.9023 2.43502 19.7503C0.00402546 25.5982 -0.633066 32.0337 0.604316 38.2427C1.8417 44.4518 4.89797 50.1554 9.3866 54.6324C13.8752 59.1094 19.5946 62.1586 25.8213 63.3943C32.0481 64.6301 38.5025 63.9969 44.3683 61.5748C50.2341 59.1527 55.2477 55.0505 58.7752 49.7871C62.3026 44.5237 64.1854 38.3354 64.1854 32.005C64.1854 23.5185 60.805 15.3794 54.7876 9.37761C48.7702 3.37579 40.6084 0.00266611 32.0972 1.57823e-06ZM32.0972 63.1459C25.9182 63.1459 19.8779 61.3189 14.7402 57.896C9.60256 54.4731 5.59823 49.608 3.23362 43.9159C0.869011 38.2238 0.250322 31.9604 1.45579 25.9177C2.66126 19.8751 5.63674 14.3245 10.006 9.96797C14.3752 5.61144 19.9419 2.64461 26.0022 1.44265C32.0625 0.240682 38.3442 0.857573 44.0529 3.21531C49.7615 5.57305 54.6408 9.56573 58.0737 14.6885C61.5066 19.8112 63.3389 25.8339 63.3389 31.995C63.3389 36.0858 62.5308 40.1365 60.9607 43.9159C59.3907 47.6953 57.0894 51.1294 54.1884 54.022C51.2873 56.9146 47.8433 59.2092 44.0529 60.7746C40.2624 62.3401 36.1999 63.1459 32.0972 63.1459Z" fill="#1D1D1B"/>
<path d="M32.0982 11.6062C28.0519 11.6062 24.0965 12.8026 20.7322 15.044C17.3678 17.2855 14.7456 20.4713 13.1972 24.1988C11.6488 27.9262 11.2436 32.0277 12.033 35.9847C12.8224 39.9417 14.7709 43.5764 17.632 46.4292C20.4931 49.2821 24.1385 51.2249 28.107 52.012C32.0755 52.799 36.189 52.3951 39.9273 50.8511C43.6655 49.3072 46.8607 46.6926 49.1087 43.3381C51.3566 39.9835 52.5565 36.0396 52.5565 32.0051C52.5565 29.3262 52.0273 26.6737 50.9992 24.1988C49.9711 21.7238 48.4641 19.4751 46.5644 17.5809C44.6647 15.6867 42.4094 14.1841 39.9273 13.159C37.4451 12.1338 34.7848 11.6062 32.0982 11.6062ZM32.0982 51.9216C28.1476 51.9216 24.2857 50.7535 21.0009 48.565C17.7161 46.3766 15.1559 43.266 13.6441 39.6268C12.1323 35.9875 11.7367 31.983 12.5075 28.1195C13.2782 24.2561 15.1806 20.7073 17.9741 17.922C20.7676 15.1366 24.3267 13.2397 28.2014 12.4712C32.076 11.7027 36.0923 12.0972 39.7421 13.6046C43.392 15.112 46.5116 17.6648 48.7064 20.94C50.9013 24.2153 52.0728 28.0659 52.0728 32.0051C52.0728 37.2872 49.9683 42.3531 46.2224 46.0882C42.4764 49.8232 37.3958 51.9216 32.0982 51.9216Z" fill="#1D1D1B"/>
<path d="M44.2118 21.6448H39.5054V20.4591H37.7216V15.3443H30.5461C29.9262 15.3127 29.3068 15.4159 28.7308 15.6467C28.1548 15.8774 27.636 16.2303 27.2103 16.6808C26.4475 17.5986 26.0526 18.7656 26.1017 19.9566V21.6348H20.4883L18.1401 43.5409L32.3299 49.5701L46.5197 43.5409L44.2118 21.6448ZM32.3702 49.0576H32.3198L18.7045 43.2696L20.9418 22.2276V22.1071H26.6258V19.9566C26.5705 18.8613 26.9303 17.7853 27.6336 16.942C28.0137 16.5453 28.4752 16.2349 28.9865 16.0321C29.4978 15.8292 30.0469 15.7385 30.5965 15.7663H37.2883V20.8711H39.0721V22.1071H43.8188V22.1674L46.0359 43.2093L32.3702 49.0576Z" fill="#1D1D1B"/>
<path fill-rule="evenodd" clip-rule="evenodd" d="M39.0419 24.5087H38.9713H37.2581V27.7444H38.9713H39.0419V27.8047V28.5684H43.6475L43.0529 22.9311H39.0419V24.4384V24.5087Z" fill="#00B1EB"/>
<path fill-rule="evenodd" clip-rule="evenodd" d="M21.6473 22.9311L21.0527 28.5684H26.5855V22.9311H21.6473Z" fill="#00B1EB"/>
<path fill-rule="evenodd" clip-rule="evenodd" d="M43.7281 29.3321H39.0419V31.3418H37.2883V34.0751H31.7051V29.3321H29.619V29.8647C29.619 32.5577 27.1096 33.9746 24.58 33.9746H24.328V31.0404H24.4893C25.6583 31.0404 26.5049 30.4274 26.5049 29.6135V29.3321H20.962L19.541 42.737L32.3501 48.1734L45.1592 42.737L43.7281 29.3321Z" fill="#005CA9"/>
<path d="M31.7053 22.9311H29.6191V28.5684H31.7053V22.9311Z" fill="#00B1EB"/>
<path fill-rule="evenodd" clip-rule="evenodd" d="M31.03 18.4293C30.8317 18.4297 30.6358 18.4715 30.4547 18.5519C30.2736 18.6324 30.1114 18.7497 29.9785 18.8964C29.8456 19.0431 29.745 19.2159 29.6831 19.4037C29.6212 19.5915 29.5994 19.7901 29.6191 19.9868V22.1071H31.7052V18.4293H31.03ZM31.2416 21.6448H30.0827V19.9868C30.0703 19.8524 30.0852 19.7168 30.1265 19.5883C30.1678 19.4597 30.2346 19.3408 30.323 19.2385C30.4114 19.1363 30.5196 19.0529 30.6411 18.9933C30.7625 18.9336 30.8948 18.899 31.03 18.8915H31.2416V21.6448Z" fill="black"/>
<path d="M27.6638 37.7931C27.5487 37.7865 27.4343 37.8146 27.3354 37.8738C27.2366 37.9329 27.1579 38.0203 27.1095 38.1247C26.9974 38.3455 26.942 38.5907 26.9483 38.8381H26.5048C26.4765 38.4601 26.5797 38.0839 26.7971 37.773C26.8974 37.6315 27.0327 37.5183 27.1899 37.4443C27.3471 37.3704 27.5207 37.3382 27.694 37.3509C27.9967 37.3435 28.29 37.4554 28.5104 37.6624C28.6264 37.7793 28.7161 37.9196 28.7735 38.0738C28.8308 38.228 28.8545 38.3927 28.8429 38.5568C28.8625 38.8746 28.7658 39.1888 28.5708 39.441C28.3886 39.6519 28.1823 39.8408 27.9561 40.0038C27.7209 40.1646 27.4992 40.3253 27.2909 40.4861C27.0931 40.6402 26.9602 40.8624 26.918 41.1091H28.8026V41.5513H26.4041C26.4059 41.1587 26.5291 40.7762 26.7568 40.456C26.9579 40.2202 27.1881 40.0109 27.4421 39.8329C27.6976 39.6608 27.9341 39.4621 28.1475 39.2401C28.3094 39.0462 28.3921 38.7987 28.3793 38.5467C28.3837 38.4466 28.3671 38.3466 28.3307 38.2532C28.2942 38.1598 28.2387 38.075 28.1677 38.0041C28.1024 37.9368 28.024 37.8834 27.9374 37.8471C27.8508 37.8109 27.7577 37.7925 27.6638 37.7931Z" fill="white"/>
<path d="M30.6771 41.6216C30.4499 41.6422 30.2229 41.5804 30.0377 41.4475C29.8526 41.3146 29.7218 41.1195 29.6693 40.8981C29.426 39.9691 29.426 38.9934 29.6693 38.0644C29.7508 37.8546 29.8941 37.6743 30.0802 37.5472C30.2664 37.4201 30.4867 37.3521 30.7124 37.3521C30.938 37.3521 31.1584 37.4201 31.3445 37.5472C31.5307 37.6743 31.6739 37.8546 31.7555 38.0644C31.9926 38.9942 31.9926 39.9683 31.7555 40.8981C31.7044 41.1343 31.5635 41.3416 31.3625 41.4765C31.1614 41.6114 30.9158 41.6634 30.6771 41.6216ZM30.6771 37.7931C30.5934 37.789 30.5097 37.8018 30.431 37.8307C30.3524 37.8595 30.2803 37.9039 30.2192 37.9611C30.1581 38.0183 30.1091 38.0871 30.0753 38.1636C30.0414 38.24 30.0233 38.3225 30.022 38.4061C29.8948 39.1206 29.8948 39.8519 30.022 40.5665C30.042 40.7271 30.1201 40.8748 30.2417 40.982C30.3632 41.0891 30.5199 41.1482 30.6821 41.1482C30.8444 41.1482 31.0011 41.0891 31.1226 40.982C31.2442 40.8748 31.3223 40.7271 31.3423 40.5665C31.467 39.8517 31.467 39.1208 31.3423 38.4061C31.3411 38.3216 31.3227 38.2383 31.2882 38.1611C31.2537 38.084 31.2038 38.0146 31.1416 37.9573C31.0794 37.8999 31.0061 37.8558 30.9263 37.8276C30.8464 37.7994 30.7616 37.7876 30.6771 37.7931Z" fill="white"/>
<path d="M34.0835 37.3509V41.5512H33.5796V38.5366H32.6323V38.1347C32.8663 38.1391 33.0978 38.0874 33.3075 37.984C33.4154 37.9178 33.5057 37.8265 33.5706 37.7181C33.6355 37.6096 33.6732 37.4871 33.6804 37.3609L34.0835 37.3509Z" fill="white"/>
<path d="M37.2883 37.3509V40.1243H37.7015V40.5665H37.2883V41.5713H36.8852V40.5665H35.2727V40.054L36.9356 37.3509H37.2883ZM35.6254 40.1243H36.8852V38.0543L35.6254 40.1243Z" fill="white"/>
<path d="M29.75 4.85351L30.1027 4.82336L30.264 7.28529L29.9112 7.30538L29.9213 7.39582L31.04 7.31543L31.0299 7.22499L30.6872 7.25514L30.526 4.80326L30.8687 4.78317V4.68268L29.75 4.76307V4.85351Z" fill="#1D1D1B"/>
<path d="M41.0978 6.2603L41.4808 6.38089L40.9164 8.07911L40.2513 5.87845L39.4551 5.61719L39.4249 5.70763L39.7474 5.80811L38.9714 8.1394L38.6489 8.03891L38.6187 8.1193L39.435 8.39062L39.4652 8.31023L39.0722 8.1796L39.828 5.9287L40.7048 8.85286L40.7753 8.8629L41.5916 6.42108L41.9141 6.52157L41.9444 6.44118L41.1281 6.16986L41.0978 6.2603Z" fill="#1D1D1B"/>
<path d="M17.9688 8.67201L18.2712 8.50118L19.5007 10.6315L19.1983 10.8023L19.2387 10.8827L20.2061 10.33L20.1658 10.2496L19.8635 10.4205L18.634 8.29016L18.9363 8.11933L18.8859 8.03894L17.9185 8.60167L17.9688 8.67201Z" fill="#1D1D1B"/>
<path d="M56.1945 19.2231L56.3859 19.5748L54.8138 20.439L55.8216 18.379L55.4185 17.6354L55.3378 17.6857L55.4991 17.9771L53.3425 19.1729L53.1812 18.8714L53.1006 18.9116L53.5138 19.6653L53.5944 19.6251L53.3928 19.2633L55.4789 18.1178V18.1278L54.1285 20.861L54.1789 20.9213L56.4363 19.6753L56.5976 19.9667L56.6883 19.9265L56.2751 19.1829L56.1945 19.2231Z" fill="#1D1D1B"/>
<path d="M50.4602 11.8474L50.7121 12.0684L49.9462 12.9226L49.0896 12.1589L49.8555 11.3047L50.0974 11.5258L50.1679 11.4555L49.3415 10.7219L49.2811 10.7923L49.5431 11.0234L47.9004 12.8522L47.6383 12.6211L47.5779 12.6915L48.4043 13.425L48.4647 13.3647L48.2128 13.1336L49.0291 12.2292L49.8857 12.9929L49.0694 13.9074L48.8175 13.6762L48.757 13.7466L49.5834 14.4801L49.6439 14.4098L49.3818 14.1787L51.0245 12.3498L51.2866 12.5809L51.347 12.5206L50.5206 11.777L50.4602 11.8474Z" fill="#1D1D1B"/>
<path d="M9.62446 16.51L9.81594 16.2286L10.7633 16.8717L10.1183 17.8263L9.17096 17.1832L9.35236 16.9119L9.28181 16.8516L8.65698 17.766L8.73761 17.8163L8.92909 17.5349L10.9749 18.9116L10.7733 19.1929L10.854 19.2432L11.4687 18.3388L11.3982 18.2886L11.2067 18.5599L10.1989 17.8766L10.8439 16.922L11.8517 17.6053L11.6703 17.8866L11.7408 17.9369L12.3657 17.0224L12.285 16.9722L12.0936 17.2636L10.0477 15.8869L10.2493 15.5955L10.1687 15.5453L9.55392 16.4597L9.62446 16.51Z" fill="#1D1D1B"/>
<path d="M46.2778 8.59161H46.2173L44.1212 10.3602L43.8591 10.1994V10.2798L44.5646 10.7018V10.6214L44.232 10.4205L44.8971 9.8477L45.4817 10.1994L45.27 11.0435L44.9375 10.8425V10.9229L45.9452 11.5359V11.4555L45.653 11.2847L46.2778 8.59161ZM44.9878 9.73716L45.7538 9.09405L45.5119 10.0989L44.9878 9.73716Z" fill="#1D1D1B"/>
<path d="M11.3174 14.1485V14.2088L12.7182 16.5602L12.5167 16.7913L12.5872 16.8516L13.1213 16.2286L13.0508 16.1683L12.7988 16.4597L12.3453 15.7161L12.7988 15.1936L13.595 15.5453L13.3431 15.8367L13.4136 15.897L14.1896 14.9926L14.109 14.9323L13.8873 15.1936L11.3174 14.1485ZM12.2345 15.6156L11.7205 14.7615L12.6275 15.1534L12.2345 15.6156Z" fill="#1D1D1B"/>
<path d="M14.4216 11.2043L14.7239 10.943L15.8728 12.2393C16.1651 12.5709 16.3062 12.8322 15.7821 13.2944C15.2581 13.7567 15.1069 13.5858 14.7743 13.2341L13.6154 11.9178L13.8875 11.6766L13.827 11.6062L12.9805 12.3498L13.0409 12.4202L13.2929 12.1991L14.4922 13.5456C14.8247 13.9174 15.0868 14.0481 15.762 13.4552C16.4372 12.8623 16.3062 12.5709 15.9736 12.1991L14.8046 10.8727L15.0364 10.6717L14.9759 10.6014L14.3611 11.144L14.4216 11.2043Z" fill="#1D1D1B"/>
<path d="M8.06222 19.002L8.2537 18.6403L9.83594 19.4743L7.55832 19.7758L7.16528 20.5194L7.24591 20.5696L7.40715 20.2581L9.59407 21.3936L9.43282 21.6951L9.51345 21.7453L9.91656 20.9816L9.82586 20.9414L9.64446 21.3032L7.52809 20.2079L7.53817 20.1978L10.5716 19.8059L10.5918 19.7356L8.30409 18.5498L8.45526 18.2484L8.37464 18.2082L7.9816 18.9618L8.06222 19.002Z" fill="#1D1D1B"/>
<path d="M16.8705 9.34528L17.2031 9.12421L18.2209 10.5913L16.0643 9.79747L15.3689 10.2798L15.4193 10.3602L15.6914 10.1592L17.1023 12.179L16.8201 12.3699L16.8806 12.4503L17.586 11.9579L17.5256 11.8876L17.193 12.1187L15.8325 10.1693H15.8426L18.7148 11.2244L18.7652 11.1741L17.2938 9.06392L17.5659 8.86294L17.5155 8.7926L16.8201 9.27494L16.8705 9.34528Z" fill="#1D1D1B"/>
<path d="M6.6615 22.0769L6.79252 21.7554L9.07014 22.6899L8.93912 23.0115L9.01975 23.0517L9.44302 22.0167L9.3624 21.9865L9.23138 22.3081L6.95376 21.3635L7.08478 21.0419L7.00415 21.0118L6.5708 22.0367L6.6615 22.0769Z" fill="#1D1D1B"/>
<path d="M20.8008 7.16472L21.1535 7.00394L21.3853 9.03378L19.9946 7.54657L20.3372 7.38579L20.2969 7.3054L19.2791 7.77769L19.3194 7.86813L19.5915 7.7375L21.4861 9.70704L21.5567 9.67689L21.2644 6.94365L21.5163 6.82307L21.476 6.74268L20.7706 7.08433L20.8008 7.16472Z" fill="#1D1D1B"/>
<path d="M24.1165 8.52127L23.5823 8.70215L23.1792 7.57669L23.3707 7.5164C23.7738 7.37572 23.8343 7.5164 23.9955 7.91835H24.0963L23.6831 6.72255H23.5823C23.7134 7.09435 23.7436 7.25513 23.3304 7.39582L23.1792 7.46616L22.7963 6.39095L22.9676 6.33065C23.7637 6.04929 23.9149 6.06939 24.2374 6.65221H24.3281L24.0358 5.89856L22.0203 6.59192V6.68236L22.3528 6.57182L23.1792 8.84283L22.8467 8.95336V9.0438L24.9529 8.31025L24.6808 7.44606H24.5901C24.7312 8.03893 24.6506 8.34039 24.1165 8.52127Z" fill="#1D1D1B"/>
<path d="M52.5463 17.947L52.2238 17.4847L53.2316 16.8014L53.3424 16.9622C53.5944 17.3139 53.5037 17.4043 53.1207 17.6756L53.1812 17.7661L54.189 17.0426L54.1285 16.9521C53.7959 17.1833 53.6549 17.2536 53.4029 16.9019L53.2921 16.7411L54.2293 16.0879L54.3301 16.2286C54.8138 16.922 54.8441 17.0727 54.3301 17.535L54.3805 17.6153L55.0355 17.133L53.8161 15.3946L53.7456 15.4448L53.9471 15.7262L51.9315 17.133L51.73 16.8516L51.6594 16.9019L52.9393 18.7207L53.6952 18.2283L53.6347 18.1479C53.2114 18.3991 52.8789 18.4092 52.5463 17.947Z" fill="#1D1D1B"/>
<path d="M27.1197 7.10442C26.9585 6.5417 26.7771 6.51155 26.2228 6.57184C26.5554 6.45126 26.7972 6.26034 26.6964 5.84834C26.5957 5.43635 26.2329 5.30571 25.7693 5.41625L24.7615 5.66747V5.7579L25.1041 5.67751L25.6383 8.03894L25.2956 8.11933V8.20977L26.374 7.95856V7.86812L26.0515 7.93846L25.7693 6.73262L26.0011 6.68238C26.4647 6.57184 26.5755 6.68238 26.7166 7.17476C26.8577 7.66714 26.9383 7.83797 27.3817 7.73748L27.6438 7.67719V7.58676H27.5531C27.3011 7.66714 27.2104 7.48627 27.1197 7.10442ZM25.739 6.63213L25.4871 5.55693H25.6786C26.0515 5.46649 26.2127 5.63732 26.2933 5.97897C26.374 6.32063 26.2933 6.5417 25.991 6.62209L25.739 6.63213Z" fill="#1D1D1B"/>
<path d="M27.9965 5.47654C27.9965 5.35833 28.0429 5.24481 28.1258 5.16029C28.2087 5.07577 28.3214 5.02697 28.44 5.02435C28.7826 5.02435 29.0245 5.14493 29.1656 5.55693H29.2664L29.1656 4.98415C28.941 4.91387 28.7044 4.88994 28.4702 4.91381C28.366 4.91747 28.2636 4.94232 28.1693 4.98683C28.075 5.03134 27.9909 5.09458 27.922 5.17267C27.8531 5.25077 27.801 5.34206 27.7687 5.44097C27.7365 5.53987 27.7248 5.6443 27.7345 5.74785C27.8554 6.65223 29.2462 6.21009 29.3369 6.9135C29.3369 7.2652 29.1051 7.46618 28.8028 7.50637C28.5972 7.52125 28.3936 7.45803 28.2328 7.32942C28.0721 7.20082 27.9661 7.01633 27.9361 6.81301H27.8353L27.9562 7.54657C28.2171 7.62621 28.4926 7.64681 28.7625 7.60686C28.8759 7.60049 28.987 7.57167 29.0892 7.52208C29.1914 7.47249 29.2826 7.40313 29.3577 7.31802C29.4327 7.23292 29.49 7.13377 29.5262 7.02637C29.5625 6.91897 29.5769 6.80545 29.5687 6.69243C29.4478 5.67751 28.0772 6.1297 27.9965 5.47654Z" fill="#1D1D1B"/>
<path d="M47.5376 10.0487C47.5764 9.99963 47.6251 9.95917 47.6804 9.92982C47.7357 9.90048 47.7966 9.88289 47.8591 9.87817C47.9216 9.87345 47.9844 9.8817 48.0435 9.90239C48.1027 9.92309 48.1569 9.95579 48.2027 9.99842C48.3364 10.0987 48.4265 10.2462 48.4546 10.4106C48.4827 10.575 48.4467 10.7439 48.3539 10.8827L48.4345 10.943L48.757 10.4607C48.6437 10.2542 48.4894 10.073 48.3035 9.92808C48.2253 9.85935 48.1339 9.80725 48.0349 9.77495C47.9359 9.74266 47.8313 9.73085 47.7275 9.74026C47.6237 9.74966 47.523 9.78009 47.4314 9.82966C47.3398 9.87923 47.2594 9.94691 47.1949 10.0286C46.6507 10.7621 47.9608 11.4052 47.5476 11.978C47.5003 12.0358 47.4414 12.0833 47.3748 12.1174C47.3082 12.1515 47.2353 12.1716 47.1606 12.1763C47.0858 12.181 47.0109 12.1703 46.9405 12.1448C46.8702 12.1193 46.8058 12.0797 46.7515 12.0283C46.5906 11.8996 46.4852 11.7144 46.4571 11.5106C46.429 11.3069 46.4802 11.1002 46.6003 10.9329L46.5197 10.8727L46.0964 11.4856C46.2297 11.7251 46.4158 11.9312 46.6406 12.0885C46.8159 12.2361 47.0426 12.3083 47.2712 12.2895C47.4997 12.2707 47.7115 12.1623 47.8601 11.9881C48.4446 11.1842 47.1445 10.5712 47.5376 10.0487Z" fill="#1D1D1B"/>
<path d="M37.8426 5.36601L38.1852 5.4464L37.6108 7.83798L37.2782 7.75759L37.2581 7.84803L38.3465 8.09924L38.3666 8.00881L38.024 7.92842L38.5884 5.53684L38.931 5.61723L38.9512 5.53684L37.8627 5.27557L37.8426 5.36601Z" fill="#1D1D1B"/>
<path d="M31.2415 5.49662H31.3523C31.3523 5.15496 31.5136 4.76306 31.8965 4.77311H32.2493V7.2049H31.8461V7.29533H33.0857V7.22499H32.6725V4.79321H32.995C33.3679 4.79321 33.509 5.18511 33.5191 5.52676H33.6299V4.68267L31.2415 4.65253V5.49662Z" fill="#1D1D1B"/>
<path d="M42.6196 7.65707H42.7203C42.8816 7.35561 43.1839 7.06419 43.5266 7.23502L43.8188 7.3757L42.7506 9.60652L42.3777 9.42564V9.50603L43.4862 10.0487V9.96827L43.1234 9.78739L44.1917 7.59678L44.4739 7.73746C44.8165 7.89824 44.7762 8.31023 44.6351 8.63179H44.7359L45.1088 7.86809L42.9924 6.86322L42.6196 7.65707Z" fill="#1D1D1B"/>
<path d="M56.0536 20.5495V20.65C56.3761 20.5294 56.7893 20.5093 56.9404 20.861L57.0614 21.1525L54.8644 22.1071L54.7032 21.7353H54.6226L55.1063 22.8708H55.1869L55.0257 22.499L57.273 21.5444L57.3939 21.8358C57.5451 22.1875 57.2428 22.4688 56.9303 22.6196V22.7201L57.7063 22.3884L56.7893 20.228L56.0536 20.5495Z" fill="#1D1D1B"/>
<path d="M35.6357 4.89371L35.6256 4.98414L35.9985 5.02434L35.3233 6.03925L34.8698 4.89371L35.2528 4.94395L35.2628 4.85351L34.0938 4.71283L34.0837 4.80327L34.3861 4.84346L34.9303 6.12969L34.7892 7.36568L34.4465 7.31544L34.4264 7.41592L35.545 7.53651V7.44607L35.2125 7.40587L35.3535 6.16989L36.1195 5.04444L36.4016 5.07458L36.4117 4.98414L35.6357 4.89371Z" fill="#1D1D1B"/>
<path d="M50.1781 14.9826L52.0224 13.3748L51.7906 13.0633L51.8612 13.003L52.617 13.8571L52.5465 13.9174L52.3147 13.6562L50.4704 15.274L50.7022 15.5353L50.6216 15.6056L49.8657 14.7515L49.9363 14.6811L50.1781 14.9826ZM52.879 14.1988L53.3426 14.7213L53.262 14.7816L53.0907 14.5907H51.8712L51.458 16.4397L51.579 16.5803L51.4984 16.6507L50.8534 15.9171L50.934 15.8468L51.0852 16.0176L51.458 14.4802H53.01L52.8085 14.249L52.879 14.1988Z" fill="#1D1D1B"/>
<path d="M34.023 56.564L34.3657 56.5338L34.6176 58.9556L34.275 58.9958L34.285 59.0862L35.3835 58.9757L35.3735 58.8853L35.0308 58.9154L34.7889 56.4936L35.1316 56.4635L35.1215 56.363L34.0129 56.4735L34.023 56.564Z" fill="#1D1D1B"/>
<path d="M50.4805 48.4748L50.7022 48.2136L52.5565 49.8113L52.3247 50.0726L52.3953 50.1228L53.1209 49.2888L53.0504 49.2285L52.8286 49.4898L50.9743 47.9021L51.196 47.6408L51.1355 47.5805L50.4099 48.4246L50.4805 48.4748Z" fill="#1D1D1B"/>
<path d="M55.9022 38.6673L55.9929 38.3357L58.3613 38.9386L58.2706 39.2702L58.3613 39.3003L58.6334 38.2251L58.5427 38.205L58.4621 38.5366L56.0937 37.9337L56.1844 37.5921L56.0937 37.572L55.8115 38.6472L55.9022 38.6673Z" fill="#1D1D1B"/>
<path d="M39.6366 55.4486L40.0095 55.328L40.5235 57.0362H40.5134L38.7296 55.6194L37.9233 55.8606L37.9536 55.951L38.2761 55.8505L38.9715 58.1818L38.649 58.2823L38.6792 58.3727L39.4955 58.1215L39.4653 58.0411L39.0823 58.1516L38.4071 55.9008H38.4172L40.7956 57.7798L40.856 57.7497L40.1203 55.2978L40.4428 55.2074L40.4126 55.117L39.6064 55.3581L39.6366 55.4486Z" fill="#1D1D1B"/>
<path d="M16.5177 51.1377L16.7696 51.3487L16.044 52.233L15.1672 51.4995L15.8929 50.6252L16.1448 50.8363L16.2053 50.7659L15.3587 50.0726L15.3083 50.1429L15.5704 50.364L14.0083 52.2431L13.7463 52.022L13.6858 52.0923L14.5323 52.7857L14.5928 52.7154L14.3308 52.5043L15.1068 51.5698L15.9936 52.2933L15.2176 53.2278L14.9556 53.0168L14.9052 53.0872L15.7417 53.7805L15.8022 53.7102L15.5401 53.4992L17.0921 51.6201L17.3642 51.8411L17.4146 51.7708L16.5782 51.0674L16.5177 51.1377Z" fill="#1D1D1B"/>
<path d="M7.98167 37.5418L8.05222 37.8634L6.94364 38.1046L6.70177 36.9992L7.81035 36.748L7.88089 37.0796L7.97159 37.0595L7.72972 35.9943L7.63902 36.0144L7.71965 36.346L5.33117 36.8686L5.26062 36.537L5.16992 36.5571L5.40171 37.6222L5.49242 37.6021L5.42187 37.2806L6.61107 37.0193L6.85294 38.1247L5.67382 38.3859L5.60327 38.0644L5.51257 38.0845L5.74437 39.1496L5.83507 39.1295L5.76452 38.7979L8.14292 38.2754L8.22354 38.607L8.31424 38.5869L8.07237 37.5217L7.98167 37.5418Z" fill="#1D1D1B"/>
<path d="M30.1027 56.4434H30.0321L28.9538 58.9354H28.6414V59.0259L29.4577 59.0962V59.0058H29.0747L29.4073 58.2019L30.0926 58.2622L30.274 59.1062H29.891V59.1967L31.0702 59.2972V59.2067H30.7275L30.1027 56.4434ZM29.4577 58.031L29.8507 57.1267L30.0624 58.1315L29.4577 58.031Z" fill="#1D1D1B"/>
<path d="M18.5939 52.5144H18.5334L16.3969 54.1925L16.1248 53.9815V54.0619L16.8101 54.5141V54.4337L16.4976 54.2629L17.1729 53.7202L17.7473 54.092L17.5054 54.916L17.1829 54.705V54.7854L18.1907 55.4385L18.1404 55.2677L17.8582 55.0868L18.5939 52.5144ZM17.2736 53.5996L18.0497 52.9967L17.7775 53.9413L17.2736 53.5996Z" fill="#1D1D1B"/>
<path d="M44.3429 53.2579H44.2825L44.8065 55.9209L44.5344 56.0716V56.152L45.25 55.75V55.6696L44.9174 55.8606L44.7461 55.0165L45.3407 54.6849L45.9655 55.2777L45.6329 55.4687V55.549L46.6407 54.9662V54.8858L46.3485 55.0567L44.3429 53.2579ZM44.7058 54.926L44.5143 53.9212L45.2298 54.5944L44.7058 54.926Z" fill="#1D1D1B"/>
<path d="M11.2671 45.2693L11.4788 45.6109L9.96708 46.5354H9.957L10.8741 44.4453L10.4307 43.7318L10.35 43.7821L10.5314 44.0634L8.44531 45.3496L8.27398 45.0582L8.19336 45.1085L8.63679 45.832L8.71741 45.7817L8.50578 45.4401L10.5113 44.2041L10.5214 44.2141L9.30193 46.9876L9.3624 47.0378L11.5392 45.7014L11.7106 45.9928L11.7912 45.9425L11.3478 45.219L11.2671 45.2693Z" fill="#1D1D1B"/>
<path d="M55.7108 45.3698L55.4286 45.8521L54.4209 45.219L54.5216 45.0482C54.7333 44.6764 54.8542 44.7267 55.2472 44.9477L55.2976 44.8573L54.2092 44.2142L54.1487 44.3046C54.4914 44.5056 54.6123 44.6061 54.4007 44.9779L54.2999 45.1487L53.2921 44.5759L53.3828 44.4252C53.8061 43.7017 53.927 43.6213 54.5519 43.8424V43.762L53.8464 43.3801L52.8386 45.1989H52.9192L53.0906 44.8975L55.2271 46.2239L55.0558 46.5254H55.1364L56.2449 44.6161L55.479 44.2142H55.4286C55.8418 44.586 55.993 44.8874 55.7108 45.3698Z" fill="#1D1D1B"/>
<path d="M13.8772 49.2385C13.9229 49.1975 13.9764 49.1662 14.0346 49.1464C14.0927 49.1267 14.1543 49.1189 14.2156 49.1236C14.2768 49.1283 14.3365 49.1454 14.3909 49.1738C14.4454 49.2021 14.4935 49.2413 14.5323 49.2888C14.6487 49.4087 14.7137 49.569 14.7137 49.7359C14.7137 49.9028 14.6487 50.0631 14.5323 50.1831L14.6029 50.2534L14.9959 49.8314C14.9152 49.6119 14.7919 49.4104 14.6331 49.2385C14.5626 49.1656 14.478 49.1076 14.3845 49.0679C14.291 49.0283 14.1905 49.0079 14.0889 49.0079C13.9873 49.0079 13.8867 49.0283 13.7932 49.0679C13.6997 49.1076 13.6152 49.1656 13.5447 49.2385C12.8997 49.8816 14.0889 50.7056 13.5447 51.2482C13.4899 51.2983 13.4253 51.3364 13.3549 51.3601C13.2846 51.3838 13.21 51.3927 13.1361 51.386C13.0621 51.3794 12.9903 51.3575 12.9253 51.3217C12.8603 51.2858 12.8035 51.2369 12.7586 51.1779C12.6197 51.0291 12.5426 50.8335 12.5426 50.6302C12.5426 50.427 12.6197 50.2314 12.7586 50.0826L12.688 50.0123L12.1741 50.5549C12.2693 50.8097 12.4208 51.0398 12.6175 51.2281C12.6909 51.3134 12.7804 51.3833 12.8809 51.434C12.9815 51.4847 13.091 51.5151 13.2034 51.5235C13.3157 51.5319 13.4286 51.5181 13.5356 51.4829C13.6426 51.4478 13.7415 51.3919 13.8269 51.3186C14.5928 50.5448 13.4137 49.7409 13.8772 49.2385Z" fill="#1D1D1B"/>
<path d="M21.1232 54.082L21.4256 54.2327L20.9116 55.2476L19.8836 54.7351L20.4077 53.7202L20.6999 53.8709L20.7403 53.7905L19.7627 53.2982L19.7224 53.3785L20.0348 53.5293L18.9262 55.7098L18.6239 55.5491L18.5735 55.6295L19.5511 56.1218L19.5914 56.0414L19.2991 55.9008L19.8534 54.8155L20.8713 55.328L20.317 56.4132L20.0247 56.2625L19.9844 56.3429L20.962 56.8353L21.0023 56.7549L20.6899 56.5941L21.7985 54.4236L22.1008 54.5743L22.1411 54.4939L21.1635 54.0016L21.1232 54.082Z" fill="#1D1D1B"/>
<path d="M42.0652 54.5442L42.3675 54.4136L42.821 55.4586L41.7729 55.9008L41.3194 54.8658L41.6218 54.7351L41.5915 54.6447L40.5837 55.0768L40.614 55.1572L40.9365 55.0265L41.904 57.2674L41.5815 57.398L41.6218 57.4885L42.6296 57.0564L42.5892 56.976L42.2869 57.1066L41.8032 55.9912L42.8513 55.539L43.335 56.6544L43.0327 56.7851L43.0629 56.8654L44.0707 56.4334L44.0405 56.353L43.718 56.4936L42.7505 54.2528L43.073 54.1121L43.0327 54.0317L42.0249 54.4638L42.0652 54.5442Z" fill="#1D1D1B"/>
<path d="M55.7109 40.466C55.6534 40.4431 55.6013 40.4087 55.5576 40.365C55.514 40.3212 55.4798 40.2691 55.4571 40.2116C55.4345 40.1542 55.4238 40.0928 55.4259 40.0311C55.4279 39.9694 55.4426 39.9088 55.469 39.853C55.5799 39.5315 55.8419 39.3908 56.2652 39.441V39.3506L55.7411 39.1898C55.5783 39.3605 55.4515 39.5622 55.3682 39.7827C55.3275 39.8761 55.3061 39.9768 55.3054 40.0786C55.3048 40.1805 55.3248 40.2814 55.3644 40.3754C55.404 40.4693 55.4622 40.5542 55.5356 40.6251C55.609 40.6959 55.6961 40.7512 55.7915 40.7876C56.6481 41.079 56.8699 39.6521 57.535 39.8731C57.6048 39.8992 57.6684 39.9395 57.7217 39.9916C57.7749 40.0436 57.8167 40.1062 57.8442 40.1753C57.8717 40.2444 57.8844 40.3185 57.8815 40.3928C57.8786 40.4671 57.8601 40.5399 57.8273 40.6067C57.7505 40.7977 57.6032 40.9521 57.4158 41.0381C57.2283 41.1241 57.0149 41.1351 56.8195 41.0689V41.1594L57.535 41.3704C57.7236 41.1734 57.8649 40.9363 57.9482 40.677C58.0265 40.4651 58.0174 40.2309 57.923 40.0257C57.8285 39.8204 57.6564 39.6608 57.4443 39.5817C56.5272 39.2702 56.3357 40.677 55.7109 40.466Z" fill="#1D1D1B"/>
<path d="M56.9908 37.5016V37.3911C56.6583 37.3207 56.2955 37.1097 56.366 36.7379L56.4164 36.4264L58.7948 36.8485L58.7242 37.2404H58.8149L59.0266 36.0345H58.9359L58.8653 36.4365L56.4869 36.0144L56.5373 35.7029C56.5978 35.3311 57.0009 35.2608 57.3436 35.301L57.4443 35.1703L56.618 35.0297L56.2148 37.3207L56.9908 37.5016Z" fill="#1D1D1B"/>
<path d="M57.5954 32.5879V32.4773C57.2527 32.4773 56.8698 32.3367 56.8597 31.9649V31.6534L59.2784 31.6031V32.0051H59.3691V30.7791H59.2784V31.1509L56.8597 31.2012V30.8897C56.8597 30.5179 57.2326 30.3671 57.5752 30.337V30.2264H56.7388V32.5577L57.5954 32.5879Z" fill="#1D1D1B"/>
<path d="M47.739 51.0573L48.0515 50.8161L49.1096 52.1627C49.3817 52.5043 49.5027 52.7756 48.9585 53.1675C48.4143 53.5594 48.2732 53.4187 47.9507 53.0469L46.8723 51.6803L47.1545 51.4592L47.0941 51.3889L46.2173 52.0823L46.2778 52.1526L46.5398 51.9416L47.6483 53.3484C47.9507 53.7303 48.2127 53.8709 48.9081 53.3484C49.6035 52.8259 49.5027 52.5043 49.1903 52.1124L48.1119 50.7357L48.3538 50.5448L48.374 50.4946L47.729 50.997L47.739 51.0573Z" fill="#1D1D1B"/>
<path d="M49.6943 49.2787L49.9764 48.9973L51.216 50.2634V50.2735L48.9787 49.8514L48.374 50.4343L48.4345 50.5046L48.6764 50.2634L50.3896 52.0119L50.1478 52.243L50.2082 52.3033L50.8129 51.7104L50.7525 51.6502L50.4703 51.9315L48.8175 50.2534V50.2433L51.8107 50.8061L51.8409 50.7458L50.0571 48.9269L50.2989 48.6858L50.2284 48.6255L49.6237 49.2184L49.6943 49.2787Z" fill="#1D1D1B"/>
<path d="M56.7589 30.0355L56.7186 29.6838L59.1575 29.4426L59.1877 29.7843L59.2784 29.7742L59.1676 28.679L59.0769 28.689L59.1071 29.0307L56.6783 29.2718L56.6481 28.9302L56.5574 28.9402L56.6682 30.0355H56.7589Z" fill="#1D1D1B"/>
<path d="M52.3649 46.0631L52.5866 45.7617L53.7758 47.4197H53.7657L51.8408 46.7867L52.0625 46.4852L51.992 46.4349L51.3369 47.3293L51.4175 47.3896L51.5889 47.1384L54.1789 47.9523L54.2293 47.892L52.6672 45.6612L52.8184 45.4401L52.7478 45.3899L52.2943 46.0129L52.3649 46.0631Z" fill="#1D1D1B"/>
<path d="M59.208 33.7635V34.3162L58.0188 34.2258V34.0248C58.0188 33.6027 58.17 33.5826 58.6336 33.6128V33.5023L57.3839 33.4118V33.5224C57.7769 33.5224 57.9382 33.5927 57.9079 34.0147V34.2157L56.7389 34.1655V33.9946C56.7994 33.1606 56.8699 32.9898 57.5351 32.9898V32.8893H56.7288L56.5776 34.9794H56.6683V34.6378L59.1072 34.8186V35.1603H59.1979L59.3592 32.9596L58.4622 32.8591V32.9596C58.9863 32.9998 59.2584 33.1606 59.208 33.7635Z" fill="#1D1D1B"/>
<path d="M7.66925 43.8022L7.42738 43.2997L8.50572 42.7873L8.58635 42.9681C8.76775 43.35 8.66697 43.4304 8.25377 43.6313V43.7318L9.43289 43.2093V43.1088C9.07009 43.2796 8.91892 43.3198 8.73752 42.938L8.64681 42.7571L9.65461 42.2647L9.73523 42.4255C10.098 43.1792 10.098 43.3299 9.56391 43.7117V43.8022L10.2794 43.4404L9.37243 41.5513H9.2918L9.44297 41.8628L7.2359 42.8676L7.0545 42.6164H6.97388L7.93128 44.6262L8.75767 44.2745V44.184C8.2437 44.3548 7.91113 44.3046 7.66925 43.8022Z" fill="#1D1D1B"/>
<path d="M56.759 41.9231C56.2148 41.7221 56.0838 41.8427 55.7512 42.315C55.852 41.9733 55.852 41.6719 55.4589 41.5111C55.0659 41.3503 54.7434 41.5111 54.562 41.9834L54.1287 42.9882H54.2093L54.3504 42.6767L56.5877 43.6816L56.4466 43.9931H56.5272L56.9706 42.9882H56.89L56.759 43.2897L55.6303 42.7973L55.721 42.5863C55.9124 42.1542 56.0838 42.1441 56.5373 42.315C56.9908 42.4858 57.1923 42.536 57.3737 42.124L57.4846 41.8829H57.404V41.9633C57.3133 42.114 57.1218 42.0637 56.759 41.9231ZM55.5597 42.737L54.5519 42.2949L54.6326 42.124C54.7837 41.7824 55.0155 41.7522 55.3279 41.8829C55.6403 42.0135 55.7915 42.2044 55.6605 42.4958L55.5597 42.737Z" fill="#1D1D1B"/>
<path d="M23.7133 57.1569C23.8846 56.6042 23.7133 56.4836 23.2598 56.2324C23.6024 56.3128 23.9048 56.2826 24.0459 55.8907C24.187 55.4988 23.9552 55.1873 23.5117 55.0265L22.5039 54.6547V54.7351L22.8264 54.8557L21.99 57.1468L21.6675 57.0262V57.1167L22.6753 57.4885V57.4081L22.3629 57.2774L22.7861 56.1218L23.0078 56.2022C23.4513 56.363 23.4714 56.5439 23.3303 56.9961C23.1892 57.4483 23.159 57.6693 23.5823 57.8201L23.8342 57.9105V57.8201H23.7435C23.5621 57.7196 23.6024 57.5287 23.7133 57.1569ZM22.8264 56.0113L23.1993 55.0064L23.3807 55.0768C23.7335 55.2074 23.7838 55.4385 23.6629 55.7601C23.542 56.0816 23.3707 56.2424 23.0683 56.1319L22.8264 56.0113Z" fill="#1D1D1B"/>
<path d="M7.05447 34.487C7.116 34.4814 7.17803 34.4887 7.23657 34.5084C7.29511 34.5281 7.34888 34.5598 7.39443 34.6014C7.43997 34.6431 7.47629 34.6937 7.50105 34.7502C7.52581 34.8066 7.53847 34.8676 7.53822 34.9292C7.53822 35.2708 7.4072 35.502 7.00408 35.6426V35.7431L7.56845 35.6527C7.63839 35.4286 7.66238 35.1928 7.639 34.9593C7.63668 34.8559 7.61302 34.754 7.56948 34.66C7.52594 34.566 7.46345 34.482 7.38592 34.4132C7.30839 34.3444 7.21747 34.2922 7.11883 34.26C7.0202 34.2277 6.91595 34.2161 6.8126 34.2258C5.91567 34.3363 6.33894 35.713 5.63348 35.8034C5.28076 35.8034 5.08928 35.5623 5.05904 35.2608C5.04186 35.0564 5.10466 34.8534 5.23428 34.6941C5.36391 34.5349 5.55031 34.4319 5.75442 34.4067V34.3062L5.03889 34.4268C4.95496 34.686 4.93084 34.9608 4.96834 35.2307C4.97348 35.3438 5.00112 35.4547 5.04965 35.5571C5.09818 35.6594 5.16664 35.7511 5.25104 35.8269C5.33543 35.9026 5.43409 35.9609 5.54127 35.9982C5.64845 36.0356 5.76201 36.0514 5.87535 36.0446C6.84284 35.924 6.40949 34.5674 7.05447 34.487Z" fill="#1D1D1B"/>
<path d="M36.5929 56.2324L36.9356 56.1621L37.4294 58.5435L37.0968 58.6139L37.117 58.7043L38.1953 58.4833L38.1751 58.3928L37.8426 58.4632L37.3387 56.0716L37.6813 56.0013L37.6612 55.9209L36.5728 56.142L36.5929 56.2324Z" fill="#1D1D1B"/>
<path d="M25.0236 55.6294L25.3562 55.7199L24.7112 58.0713L24.3685 57.9808L24.3484 58.0612L25.4166 58.3526L25.4469 58.2722L25.1042 58.1717L25.7492 55.8304L26.0919 55.9209L26.112 55.8304L25.0438 55.539L25.0236 55.6294Z" fill="#1D1D1B"/>
<path d="M11.1462 46.5053L11.2168 46.5957C11.4989 46.3947 11.892 46.2742 12.1238 46.5957L12.3153 46.8469L10.3803 48.2839L10.1384 47.9623L10.0679 48.0226L10.8136 49.0275L10.8842 48.9773L10.6423 48.6557L12.5672 47.1886L12.7587 47.4398C12.9905 47.7413 12.7587 48.0829 12.5067 48.304L12.5773 48.3944L13.2424 47.882L11.8214 46.033L11.1462 46.5053Z" fill="#1D1D1B"/>
<path d="M6.72194 28.8498V28.9603C7.06459 28.9603 7.43747 29.1713 7.40724 29.5431V29.8547L4.99861 29.6637V29.2618H4.90791L4.80713 30.4777H4.89783V30.0757L7.30646 30.2667V30.5782C7.30646 30.95 6.88319 31.0605 6.54054 31.0504V31.1509L7.37701 31.2112L7.55841 28.89L6.72194 28.8498Z" fill="#1D1D1B"/>
<path d="M6.16769 40.1947L8.45539 39.3908L8.34453 39.0692H8.43523L8.80812 40.1344H8.71741L8.60656 39.8128L6.30878 40.6167L6.41964 40.9383H6.32894L5.95605 39.8731H6.04676L6.16769 40.1947ZM8.94921 40.466L9.181 41.1192H9.0903L9.00968 40.888L7.88094 40.4358L6.81268 41.9834L6.87315 42.1642H6.78245L6.45995 41.2498H6.55065L6.63128 41.4709L7.53829 40.1947L8.95929 40.7775L8.85851 40.4961L8.94921 40.466Z" fill="#1D1D1B"/>
<path d="M7.45761 32.6682C7.45073 32.5031 7.40932 32.3413 7.33604 32.1931C7.26276 32.0449 7.15923 31.9136 7.03208 31.8076C6.90492 31.7017 6.75696 31.6234 6.59769 31.5777C6.43841 31.5321 6.27133 31.5202 6.10716 31.5428C5.94518 31.5325 5.78285 31.5561 5.63049 31.6118C5.47813 31.6676 5.33908 31.7544 5.2222 31.8666C5.10532 31.9789 5.01317 32.1142 4.95161 32.264C4.89005 32.4137 4.86044 32.5746 4.86465 32.7363C4.86887 32.8981 4.90682 33.0572 4.97609 33.2036C5.04536 33.3499 5.14443 33.4803 5.267 33.5864C5.38957 33.6924 5.53295 33.7719 5.688 33.8197C5.84306 33.8675 6.0064 33.8826 6.16763 33.864C6.33291 33.878 6.49931 33.8574 6.65613 33.8035C6.81295 33.7496 6.95672 33.6636 7.07821 33.5509C7.1997 33.4383 7.29621 33.3016 7.36155 33.1496C7.42689 32.9976 7.45961 32.8336 7.45761 32.6682ZM5.44201 33.3415C5.36022 33.337 5.28076 33.3127 5.21052 33.2706C5.14028 33.2286 5.08137 33.1701 5.03889 33.1003C4.97383 32.9865 4.9359 32.8593 4.92804 32.7285C4.91354 32.648 4.9159 32.5654 4.93498 32.4858C4.95406 32.4063 4.98944 32.3315 5.03889 32.2663C5.14711 32.1639 5.28435 32.0972 5.43193 32.0753C5.63547 32.0447 5.84087 32.0279 6.04669 32.0251C6.31785 31.9931 6.59185 31.9931 6.86301 32.0251C6.93104 32.0362 6.99591 32.0617 7.05326 32.0998C7.11062 32.1379 7.15914 32.1878 7.19558 32.2462C7.2613 32.3628 7.296 32.4942 7.29636 32.628C7.30373 32.7569 7.27586 32.8854 7.21574 32.9998C7.15593 33.1131 7.055 33.1994 6.93355 33.241C6.69738 33.3062 6.45293 33.3366 6.20794 33.3314C5.94335 33.3578 5.67695 33.3612 5.41178 33.3415H5.44201Z" fill="#1D1D1B"/>
<path d="M26.3941 58.4732L26.8274 56.1118L26.4948 56.0515V55.951L27.6034 56.152C27.8284 56.1859 28.0443 56.2645 28.2383 56.3831C28.4183 56.5146 28.5494 56.7019 28.6112 56.9157C28.6932 57.1583 28.7105 57.418 28.6616 57.6693C28.6184 57.9271 28.5031 58.1674 28.329 58.3627C28.1868 58.5314 27.9973 58.6539 27.7848 58.7144C27.5686 58.7577 27.3459 58.7577 27.1297 58.7144L26.0312 58.5134V58.4129L26.3941 58.4732ZM27.2607 56.1821L26.8375 58.5536L27.16 58.6139C27.2971 58.6312 27.436 58.6312 27.5732 58.6139C27.6899 58.598 27.7972 58.541 27.8755 58.4531C27.9732 58.3428 28.0455 58.2125 28.0871 58.0713C28.1528 57.8642 28.2033 57.6526 28.2383 57.4382C28.2903 57.1964 28.2903 56.9464 28.2383 56.7046C28.2091 56.5648 28.1259 56.442 28.0065 56.363C27.8697 56.2973 27.7235 56.2532 27.5732 56.2324L27.2607 56.1821Z" fill="#1D1D1B"/>
<path d="M33.3882 57.2774H33.2572C33.236 57.181 33.2056 57.0867 33.1665 56.996C33.1209 56.8603 33.0324 56.7428 32.9143 56.6613C32.7963 56.5798 32.6549 56.5386 32.5114 56.5439C32.4327 56.5385 32.3537 56.5491 32.2793 56.575C32.2048 56.6009 32.1363 56.6416 32.078 56.6946C31.9857 56.7941 31.9289 56.9213 31.9168 57.0563C31.9032 57.2604 31.9032 57.4652 31.9168 57.6693C31.9121 57.9853 31.9323 58.3011 31.9773 58.6139C31.9989 58.7467 32.0667 58.8676 32.1687 58.9556C32.269 59.0339 32.3943 59.0732 32.5215 59.0661C32.6209 59.0641 32.7182 59.0364 32.8037 58.9857C32.8426 58.9634 32.8762 58.933 32.9023 58.8966C32.9284 58.8602 32.9463 58.8186 32.9548 58.7747C32.9694 58.6377 32.9694 58.4996 32.9548 58.3627V58.2823H32.592V58.1818H33.761V58.2823H33.4587C33.4746 58.4176 33.4562 58.5548 33.4052 58.6812C33.3541 58.8076 33.272 58.9192 33.1665 59.0058C32.9844 59.1475 32.7623 59.2283 32.5315 59.2369C32.3742 59.2397 32.2185 59.2057 32.0767 59.1376C31.935 59.0695 31.8112 58.9693 31.7152 58.845C31.4946 58.5793 31.3735 58.2454 31.3726 57.9004C31.3486 57.5385 31.4599 57.1805 31.685 56.8956C31.7777 56.7657 31.9001 56.6597 32.0421 56.5863C32.184 56.5129 32.3414 56.4742 32.5013 56.4735C32.7299 56.4777 32.9502 56.5592 33.1261 56.7046C33.1866 56.7046 33.2269 56.6343 33.2269 56.6343H33.3277L33.3882 57.2774Z" fill="#1D1D1B"/>
</g>
<defs>
<clipPath id="clip0">
<rect width="490" height="64" fill="white"/>
</clipPath>
</defs>
</svg>
